# xmcd CD database file
#
# Track frame offsets:
#	150
#	30858
#	50254
#	76714
#	106146
#	130987
#	156431
#	190300
#	212293
#
# Disc length: 3233 seconds
#
# Revision: 1
# Processed by: cddbd v1.5.2PL0 Copyright (c) Steve Scherf et al.
# Submitted via: CDex 1.51
#
DISCID=640c9f09
DTITLE=Giuseppe Tartini - Trois concertos pour violon et orchestre  (György Vashegyi, Orfeo Orchestra)
DYEAR=1900
DGENRE=Classique
TTITLE0=Concerto en mi majeur D47 - I. Allegro  [Làszlò Paulik, violon]
TTITLE1=Concerto en mi majeur D47 - II. Adagio
TTITLE2=Concerto en mi majeur D47 - III. Allegro assai
TTITLE3=Concerto en fa majeur D69 - I. Allegro
TTITLE4=Concerto en fa majeur D69 - II. Andante
TTITLE5=Concerto en fa majeur D69 - III. Allegro
TTITLE6=Concerto en la majeur D101 - I. Allegro
TTITLE7=Concerto en la majeur D101 - II. Adagio ma non troppo
TTITLE8=Concerto en la majeur D101 - III. Allegro
EXTD=
EXTT0=
EXTT1=
EXTT2=
EXTT3=
EXTT4=
EXTT5=
EXTT6=
EXTT7=
EXTT8=
PLAYORDER=
